<svg xmlns="http://www.w3.org/2000/svg" viewBox="0 0 64 64">
  <defs>
    <linearGradient id="g" x1="0" y1="0" x2="1" y2="1">
      <stop offset="0" stop-color="#fde68a"/>
      <stop offset=".55" stop-color="#f7931a"/>
      <stop offset="1" stop-color="#b45309"/>
    </linearGradient>
    <linearGradient id="m" x1="0" y1="0" x2="0" y2="1">
      <stop offset="0" stop-color="#22ff88"/>
      <stop offset="1" stop-color="#065f46"/>
    </linearGradient>
  </defs>
  <rect width="64" height="64" rx="12" fill="#050810"/>
  <g fill="url(#m)" font-family="monospace" font-size="6" opacity=".65">
    <text x="4"  y="10">1</text><text x="4"  y="20">0</text><text x="4"  y="30">1</text><text x="4"  y="40">0</text><text x="4"  y="50">1</text><text x="4"  y="60">0</text>
    <text x="54" y="12">0</text><text x="54" y="22">1</text><text x="54" y="32">1</text><text x="54" y="42">0</text><text x="54" y="52">1</text>
    <text x="12" y="60">1</text><text x="20" y="60">0</text><text x="28" y="60">1</text><text x="36" y="60">1</text><text x="44" y="60">0</text>
  </g>
  <text x="14" y="46" font-family="'Arial Black',Arial,sans-serif" font-weight="900" font-size="40" fill="url(#g)">B</text>
  <line x1="24" y1="12" x2="24" y2="52" stroke="#f7931a" stroke-width="2.2" stroke-linecap="round"/>
  <line x1="34" y1="12" x2="34" y2="52" stroke="#f7931a" stroke-width="2.2" stroke-linecap="round"/>
  <circle cx="49" cy="49" r="7" fill="#0b1220" stroke="#3b82f6" stroke-width="1.5"/>
  <circle cx="47" cy="48" r="1.1" fill="#3b82f6"/>
  <circle cx="51" cy="48" r="1.1" fill="#3b82f6"/>
  <rect x="45" y="51" width="8" height="1.4" rx=".7" fill="#3b82f6"/>
</svg>
